<?xml version="1.0" encoding="UTF-8" standalone="no"?>
<!DOCTYPE svg PUBLIC "-//W3C//DTD SVG 1.1//EN" "http://www.w3.org/Graphics/SVG/1.1/DTD/svg11.dtd">
<svg width="100%" height="100%" viewBox="0 0 657 518" version="1.1" xmlns="http://www.w3.org/2000/svg" xmlns:xlink="http://www.w3.org/1999/xlink" xml:space="preserve" xmlns:serif="http://www.serif.com/" style="fill-rule:evenodd;clip-rule:evenodd;stroke-linecap:round;stroke-linejoin:round;stroke-miterlimit:1.5;">
    <g transform="matrix(1,0,0,1,-171.587121,-241.453916)">
        <g transform="matrix(2.183588,0,0,2.183588,-892.5517,-342.856796)">
            <g transform="matrix(0.707107,-0.707107,0.707107,0.707107,169.630988,114.997908)">
                <g transform="matrix(1,0,0,1,-222,-196)">
                    <path d="M321,716.957C311.299,704.043 303.051,689.976 296.5,675C290.666,661.664 286.178,647.606 283.208,633C280.449,619.428 279,605.382 279,591L398.501,591C398.501,591 400.808,614.591 405,624.981C406.107,627.723 426.658,672.711 489,682.227L489,720.856C488.667,720.858 488.334,720.86 488,720.86C477.059,720.86 466.432,719.521 456.278,717C453.139,716.221 450.044,715.328 447,714.328C431.502,709.233 417.295,701.331 405,691.233C399.017,686.318 393.486,680.884 388.479,675C378.045,662.74 369.886,648.527 364.646,633L326.793,633C330.578,647.884 336.304,661.982 343.68,675C349.228,684.79 355.709,693.97 363,702.414C367.442,707.558 372.184,712.43 377.2,717C385.724,724.768 395.036,731.665 405,737.554C417.994,745.234 432.095,751.199 447,755.14C453.233,756.788 459.607,758.082 466.1,759C473.587,760.059 481.232,760.617 489,760.64L489,801C474.618,801 460.572,799.551 447,796.792C432.394,793.822 418.336,789.334 405,783.5C390.024,776.949 375.957,768.701 363.043,759L363,758.967C347.114,747.027 332.973,732.886 321.033,717L321,716.957Z" style="fill:rgb(255,214,0);stroke:black;stroke-opacity:0;stroke-width:3.82px;"/>
                </g>
                <g transform="matrix(2.095238,0,0,2.095238,-527.571429,-1073.285714)">
                    <path d="M279,801L279,759C286.41,774.229 299.739,788.354 321,801L279,801Z" style="fill:rgb(255,214,0);stroke:black;stroke-opacity:0;stroke-width:1.82px;"/>
                </g>
            </g>
        </g>
    </g>
</svg>
